<svg xmlns="http://www.w3.org/2000/svg" xmlns:xlink="http://www.w3.org/1999/xlink" width="500" zoomAndPan="magnify" viewBox="0 0 375 374.999991" height="500" preserveAspectRatio="xMidYMid meet" version="1.0"><defs><clipPath id="aa0cfc61ee"><path d="M 29.609375 50.726562 L 345.359375 50.726562 L 345.359375 324.476562 L 29.609375 324.476562 Z M 29.609375 50.726562 " clip-rule="nonzero"/></clipPath></defs><g clip-path="url(#aa0cfc61ee)"><path fill="#ffffff" d="M 129.785156 159.019531 L 101.171875 109.515625 L 101.171875 109.449219 L 67.320312 50.773438 L 29.609375 50.773438 L 72.90625 125.789062 L 110.894531 191.632812 Z M 273.816406 109.449219 L 245.203125 159.019531 L 264.023438 191.632812 L 302.015625 125.789062 L 345.382812 50.773438 L 307.667969 50.773438 Z M 196.113281 111.378906 L 221.761719 66.910156 L 231.136719 50.773438 L 268.851562 50.773438 L 215.003906 144.058594 Z M 168.601562 159.019531 L 156.261719 137.648438 L 106.136719 50.773438 L 143.851562 50.773438 L 150.675781 62.632812 L 187.425781 126.339844 L 206.316406 159.019531 L 225.757812 192.667969 L 244.582031 225.277344 L 201.628906 299.738281 L 187.496094 324.214844 L 173.359375 299.671875 L 130.40625 225.207031 L 139.023438 210.246094 L 139.023438 210.179688 L 149.230469 192.527344 L 159.984375 173.84375 L 175.289062 200.386719 L 178.875 206.59375 L 168.121094 225.277344 L 187.5625 258.921875 L 207.007812 225.277344 L 187.496094 191.699219 Z M 168.601562 159.019531 " fill-opacity="1" fill-rule="evenodd"/></g></svg>