<svg xmlns="http://www.w3.org/2000/svg" xmlns:xlink="http://www.w3.org/1999/xlink" width="500" zoomAndPan="magnify" viewBox="0 0 375 374.999991" height="500" preserveAspectRatio="xMidYMid meet" version="1.0"><path fill="#ffffff" d="M 211.613281 237.035156 L 156.015625 237.035156 C 144.828125 237.035156 135.726562 227.933594 135.726562 216.746094 L 135.726562 161.15625 C 135.726562 149.96875 144.828125 140.867188 156.015625 140.867188 L 211.613281 140.867188 C 222.800781 140.867188 231.902344 149.96875 231.902344 161.15625 L 231.902344 216.746094 C 231.902344 227.933594 222.800781 237.035156 211.613281 237.035156 Z M 156.015625 152.492188 C 151.242188 152.492188 147.355469 156.375 147.355469 161.15625 L 147.355469 216.746094 C 147.355469 221.523438 151.238281 225.410156 156.015625 225.410156 L 211.613281 225.410156 C 216.386719 225.410156 220.273438 221.523438 220.273438 216.746094 L 220.273438 161.15625 C 220.273438 156.378906 216.390625 152.492188 211.613281 152.492188 Z M 156.015625 152.492188 " fill-opacity="1" fill-rule="nonzero"/><path fill="#ffffff" d="M 192.773438 206.171875 L 184.410156 206.171875 L 182.292969 200.335938 L 167.527344 200.335938 L 165.359375 206.171875 L 156.992188 206.171875 L 170.316406 171.730469 L 179.507812 171.730469 Z M 180.277344 193.882812 L 174.902344 179.066406 L 169.53125 193.882812 Z M 180.277344 193.882812 " fill-opacity="1" fill-rule="nonzero"/><path fill="#ffffff" d="M 195.976562 171.730469 L 203.308594 171.730469 L 203.308594 206.171875 L 195.976562 206.171875 Z M 195.976562 171.730469 " fill-opacity="1" fill-rule="nonzero"/><path fill="#ffffff" d="M 152.183594 133.878906 C 148.972656 133.878906 146.371094 131.277344 146.371094 128.070312 L 146.371094 120.378906 C 146.371094 117.167969 148.972656 114.566406 152.183594 114.566406 C 155.390625 114.566406 157.992188 117.167969 157.992188 120.378906 L 157.992188 128.070312 C 157.992188 131.277344 155.390625 133.878906 152.183594 133.878906 Z M 152.183594 133.878906 " fill-opacity="1" fill-rule="nonzero"/><path fill="#ffffff" d="M 183.570312 133.878906 C 180.359375 133.878906 177.757812 131.277344 177.757812 128.070312 L 177.757812 120.378906 C 177.757812 117.167969 180.359375 114.566406 183.570312 114.566406 C 186.78125 114.566406 189.382812 117.167969 189.382812 120.378906 L 189.382812 128.070312 C 189.382812 131.277344 186.78125 133.878906 183.570312 133.878906 Z M 183.570312 133.878906 " fill-opacity="1" fill-rule="nonzero"/><path fill="#ffffff" d="M 214.953125 133.878906 C 211.746094 133.878906 209.144531 131.277344 209.144531 128.070312 L 209.144531 120.378906 C 209.144531 117.167969 211.746094 114.566406 214.953125 114.566406 C 218.164062 114.566406 220.765625 117.167969 220.765625 120.378906 L 220.765625 128.070312 C 220.769531 131.277344 218.167969 133.878906 214.953125 133.878906 Z M 214.953125 133.878906 " fill-opacity="1" fill-rule="nonzero"/><path fill="#ffffff" d="M 251.910156 160.898438 L 244.21875 160.898438 C 241.007812 160.898438 238.40625 158.296875 238.40625 155.085938 C 238.40625 151.875 241.007812 149.273438 244.21875 149.273438 L 251.910156 149.273438 C 255.121094 149.273438 257.722656 151.875 257.722656 155.085938 C 257.722656 158.296875 255.121094 160.898438 251.910156 160.898438 Z M 251.910156 160.898438 " fill-opacity="1" fill-rule="nonzero"/><path fill="#ffffff" d="M 251.910156 192.285156 L 244.21875 192.285156 C 241.007812 192.285156 238.40625 189.683594 238.40625 186.472656 C 238.40625 183.265625 241.007812 180.664062 244.21875 180.664062 L 251.910156 180.664062 C 255.121094 180.664062 257.722656 183.265625 257.722656 186.472656 C 257.722656 189.683594 255.121094 192.285156 251.910156 192.285156 Z M 251.910156 192.285156 " fill-opacity="1" fill-rule="nonzero"/><path fill="#ffffff" d="M 251.910156 223.675781 L 244.21875 223.675781 C 241.007812 223.675781 238.40625 221.074219 238.40625 217.863281 C 238.40625 214.652344 241.007812 212.050781 244.21875 212.050781 L 251.910156 212.050781 C 255.121094 212.050781 257.722656 214.652344 257.722656 217.863281 C 257.722656 221.074219 255.121094 223.675781 251.910156 223.675781 Z M 251.910156 223.675781 " fill-opacity="1" fill-rule="nonzero"/><path fill="#ffffff" d="M 120.898438 160.898438 L 113.207031 160.898438 C 109.996094 160.898438 107.394531 158.296875 107.394531 155.085938 C 107.394531 151.875 109.996094 149.273438 113.207031 149.273438 L 120.898438 149.273438 C 124.109375 149.273438 126.710938 151.875 126.710938 155.085938 C 126.710938 158.296875 124.109375 160.898438 120.898438 160.898438 Z M 120.898438 160.898438 " fill-opacity="1" fill-rule="nonzero"/><path fill="#ffffff" d="M 120.898438 192.285156 L 113.207031 192.285156 C 109.996094 192.285156 107.394531 189.683594 107.394531 186.472656 C 107.394531 183.265625 109.996094 180.664062 113.207031 180.664062 L 120.898438 180.664062 C 124.109375 180.664062 126.710938 183.265625 126.710938 186.472656 C 126.710938 189.683594 124.109375 192.285156 120.898438 192.285156 Z M 120.898438 192.285156 " fill-opacity="1" fill-rule="nonzero"/><path fill="#ffffff" d="M 120.898438 223.675781 L 113.207031 223.675781 C 109.996094 223.675781 107.394531 221.074219 107.394531 217.863281 C 107.394531 214.652344 109.996094 212.050781 113.207031 212.050781 L 120.898438 212.050781 C 124.109375 212.050781 126.710938 214.652344 126.710938 217.863281 C 126.710938 221.074219 124.109375 223.675781 120.898438 223.675781 Z M 120.898438 223.675781 " fill-opacity="1" fill-rule="nonzero"/><path fill="#ffffff" d="M 152.183594 263.339844 C 148.972656 263.339844 146.371094 260.738281 146.371094 257.527344 L 146.371094 249.835938 C 146.371094 246.625 148.972656 244.023438 152.183594 244.023438 C 155.390625 244.023438 157.992188 246.625 157.992188 249.835938 L 157.992188 257.527344 C 157.992188 260.738281 155.390625 263.339844 152.183594 263.339844 Z M 152.183594 263.339844 " fill-opacity="1" fill-rule="nonzero"/><path fill="#ffffff" d="M 183.570312 263.339844 C 180.359375 263.339844 177.757812 260.738281 177.757812 257.527344 L 177.757812 249.835938 C 177.757812 246.625 180.359375 244.023438 183.570312 244.023438 C 186.78125 244.023438 189.382812 246.625 189.382812 249.835938 L 189.382812 257.527344 C 189.382812 260.738281 186.78125 263.339844 183.570312 263.339844 Z M 183.570312 263.339844 " fill-opacity="1" fill-rule="nonzero"/><path fill="#ffffff" d="M 214.953125 263.339844 C 211.746094 263.339844 209.144531 260.738281 209.144531 257.527344 L 209.144531 249.835938 C 209.144531 246.625 211.746094 244.023438 214.953125 244.023438 C 218.164062 244.023438 220.765625 246.625 220.765625 249.835938 L 220.765625 257.527344 C 220.769531 260.738281 218.167969 263.339844 214.953125 263.339844 Z M 214.953125 263.339844 " fill-opacity="1" fill-rule="nonzero"/><path fill="#ffffff" d="M 127.910156 329.390625 C 105.863281 329.390625 86.476562 322.753906 72.546875 308.824219 C 52.96875 289.246094 46.941406 258.765625 55.574219 222.996094 C 63.964844 188.246094 85.296875 152.390625 115.648438 122.042969 C 179.019531 58.664062 262.820312 39.332031 302.425781 78.941406 C 342.039062 118.554688 322.703125 202.34375 259.324219 265.722656 C 218.242188 306.8125 168.558594 329.390625 127.910156 329.390625 Z M 246.746094 69.667969 C 209.476562 69.667969 162.824219 91.304688 123.867188 130.261719 C 65.019531 189.109375 45.6875 265.519531 80.765625 300.605469 C 115.839844 335.675781 192.261719 316.339844 251.105469 257.503906 C 309.953125 198.65625 329.285156 122.246094 294.207031 87.164062 C 282.355469 75.308594 265.769531 69.667969 246.746094 69.667969 Z M 255.21875 261.613281 L 255.246094 261.613281 Z M 255.21875 261.613281 " fill-opacity="1" fill-rule="nonzero"/><path fill="#ffffff" d="M 247.0625 329.390625 C 206.414062 329.390625 156.738281 306.816406 115.648438 265.722656 C 52.269531 202.34375 32.933594 118.554688 72.546875 78.941406 C 112.160156 39.328125 195.953125 58.664062 259.324219 122.042969 C 289.675781 152.390625 311.007812 188.246094 319.398438 222.996094 C 328.03125 258.765625 322.003906 289.246094 302.425781 308.824219 C 288.5 322.753906 269.109375 329.390625 247.0625 329.390625 Z M 123.871094 257.503906 C 182.714844 316.347656 259.128906 335.683594 294.210938 300.605469 C 329.289062 265.523438 309.957031 189.113281 251.109375 130.261719 C 192.265625 71.417969 115.855469 52.085938 80.769531 87.164062 C 45.691406 122.242188 65.023438 198.652344 123.871094 257.503906 Z M 123.871094 257.503906 " fill-opacity="1" fill-rule="nonzero"/><path fill="#ffffff" d="M 306.625 73.425781 C 306.625 73.957031 306.597656 74.488281 306.546875 75.015625 C 306.496094 75.546875 306.417969 76.070312 306.3125 76.59375 C 306.210938 77.113281 306.082031 77.628906 305.925781 78.136719 C 305.773438 78.644531 305.59375 79.144531 305.390625 79.636719 C 305.1875 80.128906 304.960938 80.605469 304.707031 81.074219 C 304.457031 81.542969 304.183594 82 303.890625 82.441406 C 303.59375 82.882812 303.277344 83.308594 302.941406 83.722656 C 302.605469 84.132812 302.246094 84.527344 301.871094 84.902344 C 301.496094 85.277344 301.101562 85.632812 300.691406 85.972656 C 300.28125 86.308594 299.855469 86.625 299.414062 86.917969 C 298.96875 87.214844 298.515625 87.488281 298.046875 87.738281 C 297.578125 87.988281 297.097656 88.214844 296.605469 88.417969 C 296.117188 88.621094 295.617188 88.800781 295.105469 88.957031 C 294.597656 89.109375 294.082031 89.238281 293.5625 89.34375 C 293.039062 89.445312 292.515625 89.523438 291.988281 89.578125 C 291.457031 89.628906 290.925781 89.65625 290.394531 89.65625 C 289.863281 89.65625 289.335938 89.628906 288.804688 89.578125 C 288.277344 89.523438 287.75 89.445312 287.230469 89.34375 C 286.707031 89.238281 286.195312 89.109375 285.683594 88.957031 C 285.175781 88.800781 284.675781 88.621094 284.1875 88.417969 C 283.695312 88.214844 283.214844 87.988281 282.746094 87.738281 C 282.277344 87.488281 281.820312 87.214844 281.378906 86.917969 C 280.9375 86.625 280.511719 86.308594 280.101562 85.972656 C 279.691406 85.632812 279.296875 85.277344 278.921875 84.902344 C 278.542969 84.527344 278.1875 84.132812 277.851562 83.722656 C 277.515625 83.308594 277.199219 82.882812 276.902344 82.441406 C 276.605469 82 276.335938 81.542969 276.082031 81.074219 C 275.832031 80.605469 275.605469 80.128906 275.402344 79.636719 C 275.199219 79.144531 275.019531 78.644531 274.867188 78.136719 C 274.710938 77.628906 274.582031 77.113281 274.480469 76.59375 C 274.375 76.070312 274.296875 75.546875 274.246094 75.015625 C 274.195312 74.488281 274.167969 73.957031 274.167969 73.425781 C 274.167969 72.894531 274.195312 72.363281 274.246094 71.835938 C 274.296875 71.304688 274.375 70.78125 274.480469 70.257812 C 274.582031 69.738281 274.710938 69.222656 274.867188 68.714844 C 275.019531 68.207031 275.199219 67.707031 275.402344 67.214844 C 275.605469 66.722656 275.832031 66.246094 276.082031 65.777344 C 276.335938 65.308594 276.605469 64.851562 276.902344 64.410156 C 277.199219 63.96875 277.515625 63.542969 277.851562 63.128906 C 278.1875 62.71875 278.542969 62.328125 278.921875 61.949219 C 279.296875 61.574219 279.691406 61.21875 280.101562 60.882812 C 280.511719 60.542969 280.9375 60.226562 281.378906 59.933594 C 281.820312 59.636719 282.277344 59.363281 282.746094 59.113281 C 283.214844 58.863281 283.695312 58.636719 284.1875 58.433594 C 284.675781 58.230469 285.175781 58.050781 285.683594 57.894531 C 286.195312 57.742188 286.707031 57.613281 287.230469 57.507812 C 287.75 57.40625 288.277344 57.328125 288.804688 57.273438 C 289.335938 57.222656 289.863281 57.195312 290.394531 57.195312 C 290.925781 57.195312 291.457031 57.222656 291.988281 57.273438 C 292.515625 57.328125 293.039062 57.40625 293.5625 57.507812 C 294.082031 57.613281 294.597656 57.742188 295.105469 57.894531 C 295.617188 58.050781 296.117188 58.230469 296.605469 58.433594 C 297.097656 58.636719 297.578125 58.863281 298.046875 59.113281 C 298.515625 59.363281 298.96875 59.636719 299.414062 59.933594 C 299.855469 60.226562 300.28125 60.542969 300.691406 60.882812 C 301.101562 61.21875 301.496094 61.574219 301.871094 61.949219 C 302.246094 62.328125 302.605469 62.71875 302.941406 63.128906 C 303.277344 63.542969 303.59375 63.96875 303.890625 64.410156 C 304.183594 64.851562 304.457031 65.308594 304.707031 65.777344 C 304.960938 66.246094 305.1875 66.722656 305.390625 67.214844 C 305.59375 67.707031 305.773438 68.207031 305.925781 68.714844 C 306.082031 69.222656 306.210938 69.738281 306.3125 70.257812 C 306.417969 70.78125 306.496094 71.304688 306.546875 71.835938 C 306.597656 72.363281 306.625 72.894531 306.625 73.425781 Z M 306.625 73.425781 " fill-opacity="1" fill-rule="nonzero"/><path fill="#ffffff" d="M 323.574219 306.617188 C 323.574219 307.382812 323.539062 308.144531 323.464844 308.90625 C 323.386719 309.667969 323.277344 310.421875 323.125 311.171875 C 322.976562 311.921875 322.792969 312.664062 322.570312 313.394531 C 322.347656 314.128906 322.089844 314.847656 321.796875 315.554688 C 321.503906 316.257812 321.179688 316.949219 320.816406 317.625 C 320.457031 318.300781 320.066406 318.953125 319.640625 319.589844 C 319.214844 320.226562 318.761719 320.839844 318.273438 321.429688 C 317.789062 322.023438 317.277344 322.589844 316.734375 323.128906 C 316.195312 323.667969 315.628906 324.183594 315.039062 324.667969 C 314.445312 325.152344 313.832031 325.609375 313.199219 326.03125 C 312.5625 326.457031 311.90625 326.851562 311.230469 327.210938 C 310.558594 327.570312 309.867188 327.898438 309.160156 328.191406 C 308.453125 328.484375 307.734375 328.742188 307.003906 328.960938 C 306.269531 329.183594 305.53125 329.371094 304.78125 329.519531 C 304.03125 329.667969 303.273438 329.78125 302.511719 329.855469 C 301.753906 329.929688 300.988281 329.96875 300.222656 329.96875 C 299.460938 329.96875 298.695312 329.929688 297.9375 329.855469 C 297.175781 329.78125 296.417969 329.667969 295.667969 329.519531 C 294.917969 329.371094 294.179688 329.183594 293.445312 328.960938 C 292.714844 328.742188 291.996094 328.484375 291.289062 328.191406 C 290.582031 327.898438 289.890625 327.570312 289.21875 327.210938 C 288.542969 326.851562 287.886719 326.457031 287.25 326.03125 C 286.617188 325.609375 286 325.152344 285.410156 324.667969 C 284.820312 324.183594 284.253906 323.667969 283.710938 323.128906 C 283.171875 322.589844 282.660156 322.023438 282.175781 321.429688 C 281.6875 320.839844 281.234375 320.226562 280.808594 319.589844 C 280.382812 318.953125 279.992188 318.300781 279.628906 317.625 C 279.269531 316.949219 278.945312 316.257812 278.652344 315.554688 C 278.359375 314.847656 278.101562 314.128906 277.878906 313.394531 C 277.65625 312.664062 277.472656 311.921875 277.320312 311.171875 C 277.171875 310.421875 277.0625 309.667969 276.984375 308.90625 C 276.910156 308.144531 276.875 307.382812 276.875 306.617188 C 276.875 305.851562 276.910156 305.089844 276.984375 304.328125 C 277.0625 303.566406 277.171875 302.8125 277.320312 302.0625 C 277.472656 301.3125 277.65625 300.570312 277.878906 299.839844 C 278.101562 299.105469 278.359375 298.386719 278.652344 297.679688 C 278.945312 296.972656 279.269531 296.285156 279.628906 295.609375 C 279.992188 294.933594 280.382812 294.28125 280.808594 293.644531 C 281.234375 293.007812 281.6875 292.394531 282.175781 291.804688 C 282.660156 291.210938 283.171875 290.644531 283.710938 290.105469 C 284.253906 289.566406 284.820312 289.050781 285.410156 288.566406 C 286 288.082031 286.617188 287.625 287.25 287.203125 C 287.886719 286.777344 288.542969 286.382812 289.21875 286.023438 C 289.890625 285.664062 290.582031 285.335938 291.289062 285.042969 C 291.996094 284.75 292.714844 284.492188 293.445312 284.273438 C 294.179688 284.050781 294.917969 283.863281 295.667969 283.714844 C 296.417969 283.566406 297.175781 283.453125 297.9375 283.378906 C 298.695312 283.304688 299.460938 283.265625 300.222656 283.265625 C 300.988281 283.265625 301.753906 283.304688 302.511719 283.378906 C 303.273438 283.453125 304.03125 283.566406 304.78125 283.714844 C 305.53125 283.863281 306.269531 284.050781 307.003906 284.273438 C 307.734375 284.492188 308.453125 284.75 309.160156 285.042969 C 309.867188 285.335938 310.558594 285.664062 311.230469 286.023438 C 311.90625 286.382812 312.5625 286.777344 313.199219 287.203125 C 313.832031 287.625 314.445312 288.082031 315.039062 288.566406 C 315.628906 289.050781 316.195312 289.566406 316.734375 290.105469 C 317.277344 290.644531 317.789062 291.210938 318.273438 291.804688 C 318.761719 292.394531 319.214844 293.007812 319.640625 293.644531 C 320.066406 294.28125 320.457031 294.933594 320.816406 295.609375 C 321.179688 296.285156 321.503906 296.972656 321.796875 297.679688 C 322.089844 298.386719 322.347656 299.105469 322.570312 299.839844 C 322.792969 300.570312 322.976562 301.3125 323.125 302.0625 C 323.277344 302.8125 323.386719 303.566406 323.464844 304.328125 C 323.539062 305.089844 323.574219 305.851562 323.574219 306.617188 Z M 323.574219 306.617188 " fill-opacity="1" fill-rule="nonzero"/><path fill="#ffffff" d="M 130.097656 257.523438 C 130.097656 258.078125 130.070312 258.628906 130.015625 259.179688 C 129.960938 259.730469 129.878906 260.277344 129.773438 260.820312 C 129.664062 261.359375 129.53125 261.898438 129.371094 262.425781 C 129.210938 262.957031 129.023438 263.476562 128.8125 263.988281 C 128.601562 264.5 128.363281 264.996094 128.101562 265.484375 C 127.84375 265.972656 127.558594 266.445312 127.25 266.90625 C 126.941406 267.367188 126.613281 267.8125 126.261719 268.238281 C 125.914062 268.667969 125.542969 269.074219 125.148438 269.464844 C 124.757812 269.859375 124.347656 270.230469 123.921875 270.578125 C 123.496094 270.929688 123.050781 271.261719 122.589844 271.566406 C 122.128906 271.875 121.65625 272.160156 121.167969 272.417969 C 120.679688 272.679688 120.179688 272.917969 119.671875 273.128906 C 119.160156 273.339844 118.640625 273.527344 118.109375 273.6875 C 117.582031 273.847656 117.042969 273.980469 116.503906 274.089844 C 115.960938 274.195312 115.414062 274.277344 114.863281 274.332031 C 114.3125 274.386719 113.761719 274.414062 113.207031 274.414062 C 112.652344 274.414062 112.101562 274.386719 111.550781 274.332031 C 111 274.277344 110.453125 274.195312 109.910156 274.089844 C 109.371094 273.980469 108.832031 273.847656 108.304688 273.6875 C 107.773438 273.527344 107.253906 273.339844 106.742188 273.128906 C 106.230469 272.917969 105.734375 272.679688 105.246094 272.417969 C 104.757812 272.160156 104.28125 271.875 103.824219 271.566406 C 103.363281 271.261719 102.917969 270.929688 102.492188 270.578125 C 102.0625 270.230469 101.65625 269.859375 101.265625 269.464844 C 100.871094 269.074219 100.5 268.667969 100.152344 268.238281 C 99.800781 267.8125 99.46875 267.367188 99.164062 266.90625 C 98.855469 266.445312 98.570312 265.972656 98.3125 265.484375 C 98.050781 264.996094 97.8125 264.5 97.601562 263.988281 C 97.390625 263.476562 97.203125 262.957031 97.042969 262.425781 C 96.882812 261.898438 96.75 261.359375 96.640625 260.820312 C 96.535156 260.277344 96.453125 259.730469 96.398438 259.179688 C 96.34375 258.628906 96.316406 258.078125 96.316406 257.523438 C 96.316406 256.96875 96.34375 256.417969 96.398438 255.867188 C 96.453125 255.316406 96.535156 254.769531 96.640625 254.226562 C 96.75 253.6875 96.882812 253.148438 97.042969 252.621094 C 97.203125 252.089844 97.390625 251.570312 97.601562 251.058594 C 97.8125 250.550781 98.050781 250.050781 98.3125 249.5625 C 98.570312 249.074219 98.855469 248.601562 99.164062 248.140625 C 99.46875 247.679688 99.800781 247.234375 100.152344 246.808594 C 100.5 246.382812 100.871094 245.972656 101.265625 245.582031 C 101.65625 245.1875 102.0625 244.816406 102.492188 244.46875 C 102.917969 244.117188 103.363281 243.789062 103.824219 243.480469 C 104.28125 243.171875 104.757812 242.886719 105.246094 242.628906 C 105.734375 242.367188 106.230469 242.128906 106.742188 241.917969 C 107.253906 241.707031 107.773438 241.519531 108.304688 241.359375 C 108.832031 241.199219 109.371094 241.066406 109.910156 240.957031 C 110.453125 240.851562 111 240.769531 111.550781 240.714844 C 112.101562 240.660156 112.652344 240.632812 113.207031 240.632812 C 113.761719 240.632812 114.3125 240.660156 114.863281 240.714844 C 115.414062 240.769531 115.960938 240.851562 116.503906 240.957031 C 117.042969 241.066406 117.582031 241.199219 118.109375 241.359375 C 118.640625 241.519531 119.160156 241.707031 119.671875 241.917969 C 120.179688 242.128906 120.679688 242.367188 121.167969 242.628906 C 121.65625 242.886719 122.128906 243.171875 122.589844 243.480469 C 123.050781 243.789062 123.496094 244.117188 123.921875 244.46875 C 124.347656 244.816406 124.757812 245.1875 125.148438 245.582031 C 125.542969 245.972656 125.914062 246.382812 126.261719 246.808594 C 126.613281 247.234375 126.941406 247.679688 127.25 248.140625 C 127.558594 248.601562 127.84375 249.074219 128.101562 249.5625 C 128.363281 250.050781 128.601562 250.550781 128.8125 251.058594 C 129.023438 251.570312 129.210938 252.089844 129.371094 252.621094 C 129.53125 253.148438 129.664062 253.6875 129.773438 254.226562 C 129.878906 254.769531 129.960938 255.316406 130.015625 255.867188 C 130.070312 256.417969 130.097656 256.96875 130.097656 257.523438 Z M 130.097656 257.523438 " fill-opacity="1" fill-rule="nonzero"/></svg>